<svg width="16" height="14" viewBox="0 0 16 14" fill="none" xmlns="http://www.w3.org/2000/svg">
<path fill-rule="evenodd" clip-rule="evenodd" d="M7.7071 0.29289C8.0976 0.68342 8.0976 1.31658 7.7071 1.70711L3.41421 6H15C15.5523 6 16 6.4477 16 7C16 7.5523 15.5523 8 15 8H3.41421L7.7071 12.2929C8.0976 12.6834 8.0976 13.3166 7.7071 13.7071C7.3166 14.0976 6.6834 14.0976 6.2929 13.7071L0.29289 7.7071C0.10536 7.5196 0 7.2652 0 7C0 6.7348 0.10536 6.4804 0.29289 6.2929L6.2929 0.29289C6.6834 -0.09763 7.3166 -0.09763 7.7071 0.29289Z" fill="#282828"/>
</svg>
