<svg width="15" height="16" viewBox="0 0 15 16" fill="none" xmlns="http://www.w3.org/2000/svg">
<path fill-rule="evenodd" clip-rule="evenodd" d="M5 0C5.46023 0 5.83333 0.377027 5.83333 0.842105V1.68421H9.16667V0.842105C9.16667 0.377027 9.53975 0 10 0C10.4602 0 10.8333 0.377027 10.8333 0.842105V1.68421H13.3333C14.2538 1.68421 15 2.43826 15 3.36842V14.3158C15 15.246 14.2538 16 13.3333 16H1.66667C0.746192 16 0 15.246 0 14.3158V3.36842C0 2.43826 0.746192 1.68421 1.66667 1.68421H4.16667V0.842105C4.16667 0.377027 4.53977 0 5 0ZM4.16667 3.36842H1.66667V5.89474H13.3333V3.36842H10.8333V4.21053C10.8333 4.6756 10.4602 5.05263 10 5.05263C9.53975 5.05263 9.16667 4.6756 9.16667 4.21053V3.36842H5.83333V4.21053C5.83333 4.6756 5.46023 5.05263 5 5.05263C4.53977 5.05263 4.16667 4.6756 4.16667 4.21053V3.36842ZM13.3333 7.57895H1.66667V14.3158H13.3333V7.57895Z" fill="white"/>
</svg>
