<svg width="25" height="14" viewBox="0 0 25 14" fill="none" xmlns="http://www.w3.org/2000/svg">
<path d="M24.1827 6.97007C21.6897 10.771 17.2928 13.0875 12.5468 13.0875C7.80073 13.0875 3.40382 10.771 0.910789 6.97007L0.632568 6.54375L0.910789 6.11743C3.40382 2.31651 7.80073 0 12.5468 0C17.2928 0 21.6897 2.31651 24.1827 6.11743L24.4664 6.54375L24.1827 6.97007ZM12.5468 3.26674C14.467 3.26674 16.0217 4.73061 16.0217 6.53862C16.0217 8.34662 14.467 9.81049 12.5468 9.81049C10.6265 9.81049 9.0718 8.34662 9.0718 6.53862C9.0718 4.73061 10.6265 3.26674 12.5468 3.26674ZM22.4098 6.53862C20.1786 3.45679 16.5072 1.62823 12.5468 1.62823C8.58628 1.62823 4.91491 3.45679 2.67827 6.53862C4.90945 9.62045 8.58083 11.449 12.5468 11.449C16.5072 11.449 20.1786 9.62045 22.4098 6.53862Z" fill="#3B3447"/>
</svg>
