<svg width="20" height="21" viewBox="0 0 20 21" fill="none" xmlns="http://www.w3.org/2000/svg">
<path fill-rule="evenodd" clip-rule="evenodd" d="M3.33366 1.75H16.667C17.5875 1.75 18.3337 2.5335 18.3337 3.5V17.5C18.3337 18.4665 17.5875 19.25 16.667 19.25H3.33366C2.41318 19.25 1.66699 18.4665 1.66699 17.5V3.5C1.66699 2.5335 2.41318 1.75 3.33366 1.75ZM3.33366 3.5V17.5H16.667V3.5H3.33366ZM9.27791 10.5038H10.8337V15.75H12.5004V10.5038H14.1524V8.75385H12.5004V7.875C12.5004 7.39175 12.8735 7 13.3337 7H14.167V5.25H13.3337C11.953 5.25 10.8337 6.42525 10.8337 7.875V8.75385H9.27791V10.5038Z" fill="#7245B2"/>
</svg>
