<svg width="26" height="16" viewBox="0 0 26 16" fill="none" xmlns="http://www.w3.org/2000/svg">
<path fill-rule="evenodd" clip-rule="evenodd" d="M8.36002 0C10.3818 0 12.2368 0.686924 13.6823 1.83099L11.7364 4.08526C10.819 3.35964 9.64134 2.92184 8.35751 2.92184C5.42847 2.92184 3.05287 5.19547 3.05287 7.99879C3.05287 10.8021 5.69382 13.0757 8.35751 13.0757C11.0212 13.0757 12.8812 11.5519 13.2856 9.46213H8.35751V6.54029C11.097 6.54029 13.8365 6.54029 16.576 6.54029C17.2457 12.1107 13.6065 16 8.35751 16C3.74281 16 0 12.4178 0 8.00121C0 3.58458 3.74281 0.00241742 8.35751 0.00241742L8.36002 0ZM18.297 6.53787H20.8723V4.07317H23.4248V6.53787H26V8.9808H23.4248V11.4455H20.8723V8.9808H18.297V6.53787Z" fill="white"/>
</svg>
