<svg width="20" height="21" viewBox="0 0 20 21" fill="none" xmlns="http://www.w3.org/2000/svg">
<path fill-rule="evenodd" clip-rule="evenodd" d="M13.3337 1.75H6.66699C3.90557 1.75 1.66699 4.10051 1.66699 7V14C1.66699 16.8995 3.90557 19.25 6.66699 19.25H13.3337C16.0951 19.25 18.3337 16.8995 18.3337 14V7C18.3337 4.10051 16.0951 1.75 13.3337 1.75ZM3.33366 7C3.33366 5.067 4.82604 3.5 6.66699 3.5H13.3337C15.1746 3.5 16.667 5.067 16.667 7V14C16.667 15.933 15.1746 17.5 13.3337 17.5H6.66699C4.82604 17.5 3.33366 15.933 3.33366 14V7ZM10.0003 14.875C7.69914 14.875 5.83366 12.9162 5.83366 10.5C5.83366 8.08375 7.69914 6.125 10.0003 6.125C12.3015 6.125 14.167 8.08375 14.167 10.5C14.167 12.9162 12.3015 14.875 10.0003 14.875ZM10.0003 13.125C11.381 13.125 12.5003 11.9497 12.5003 10.5C12.5003 9.05025 11.381 7.875 10.0003 7.875C8.61961 7.875 7.50033 9.05025 7.50033 10.5C7.50033 11.9497 8.61961 13.125 10.0003 13.125ZM15.0003 6.125C15.0003 6.60825 14.6272 7 14.167 7C13.7068 7 13.3337 6.60825 13.3337 6.125C13.3337 5.64175 13.7068 5.25 14.167 5.25C14.6272 5.25 15.0003 5.64175 15.0003 6.125Z" fill="#7245B2"/>
</svg>
