<svg id="ems6b7z3aim1" xmlns="http://www.w3.org/2000/svg" xmlns:xlink="http://www.w3.org/1999/xlink" viewBox="0 0 3555.550000 3555.550000" shape-rendering="geometricPrecision" text-rendering="geometricPrecision"><style><![CDATA[#ems6b7z3aim3_to {animation: ems6b7z3aim3_to__to 1500ms linear 1 normal forwards}@keyframes ems6b7z3aim3_to__to { 0% {transform: translate(1777.587862px,2616.650468px)} 40% {transform: translate(1777.587862px,2616.650468px);animation-timing-function: cubic-bezier(0,0,0.580000,1)} 97.333333% {transform: translate(1777.770142px,2732.080078px)} 100% {transform: translate(1777.770142px,2732.080078px)} }#ems6b7z3aim3 {animation: ems6b7z3aim3_c_o 1500ms linear 1 normal forwards}@keyframes ems6b7z3aim3_c_o { 0% {opacity: 0} 40% {opacity: 0;animation-timing-function: cubic-bezier(0.420000,0,1,1)} 90.666667% {opacity: 1} 100% {opacity: 1} }#ems6b7z3aim4_tr {animation: ems6b7z3aim4_tr__tr 1500ms linear 1 normal forwards}@keyframes ems6b7z3aim4_tr__tr { 0% {transform: translate(944px,2328px) rotate(0deg);animation-timing-function: cubic-bezier(0,0,0.580000,1)} 26.666667% {transform: translate(944px,2328px) rotate(25.340000deg)} 100% {transform: translate(944px,2328px) rotate(25.340000deg)} }#ems6b7z3aim4_ts {animation: ems6b7z3aim4_ts__ts 1500ms linear 1 normal forwards}@keyframes ems6b7z3aim4_ts__ts { 0% {transform: scale(0,1);animation-timing-function: cubic-bezier(0,0,0.580000,1)} 40% {transform: scale(1,1)} 100% {transform: scale(1,1)} }#ems6b7z3aim4 {animation: ems6b7z3aim4_c_o 1500ms linear 1 normal forwards}@keyframes ems6b7z3aim4_c_o { 0% {opacity: 0} 26.666667% {opacity: 1} 100% {opacity: 1} }#ems6b7z3aim5_tr {animation: ems6b7z3aim5_tr__tr 1500ms linear 1 normal forwards}@keyframes ems6b7z3aim5_tr__tr { 0% {transform: translate(944px,2328px) rotate(0deg);animation-timing-function: cubic-bezier(0,0,0.580000,1)} 26.666667% {transform: translate(944px,2328px) rotate(25.340000deg)} 100% {transform: translate(944px,2328px) rotate(25.340000deg)} }#ems6b7z3aim5_ts {animation: ems6b7z3aim5_ts__ts 1500ms linear 1 normal forwards}@keyframes ems6b7z3aim5_ts__ts { 0% {transform: scale(0,1)} 20% {transform: scale(0,1);animation-timing-function: cubic-bezier(0.600000,1.375000,0.560000,1)} 60% {transform: scale(1,1)} 100% {transform: scale(1,1)} }#ems6b7z3aim5 {animation: ems6b7z3aim5_c_o 1500ms linear 1 normal forwards}@keyframes ems6b7z3aim5_c_o { 0% {opacity: 0} 20% {opacity: 0} 33.333333% {opacity: 1} 100% {opacity: 1} }#ems6b7z3aim6_ts {animation: ems6b7z3aim6_ts__ts 1500ms linear 1 normal forwards}@keyframes ems6b7z3aim6_ts__ts { 0% {transform: translate(944px,2328px) rotate(25.340000deg) scale(0,1)} 33.333333% {transform: translate(944px,2328px) rotate(25.340000deg) scale(0,1);animation-timing-function: cubic-bezier(0.620000,1.470000,0.665000,0.995000)} 73.333333% {transform: translate(944px,2328px) rotate(25.340000deg) scale(1,1)} 100% {transform: translate(944px,2328px) rotate(25.340000deg) scale(1,1)} }#ems6b7z3aim6 {animation: ems6b7z3aim6_c_o 1500ms linear 1 normal forwards}@keyframes ems6b7z3aim6_c_o { 0% {opacity: 0} 33.333333% {opacity: 0} 46.666667% {opacity: 1} 100% {opacity: 1} }]]></style><defs><linearGradient id="ems6b7z3aim4-fill" x1="2072.160000" y1="1442" x2="944.630000" y2="381" spreadMethod="pad" gradientUnits="userSpaceOnUse"><stop id="ems6b7z3aim4-fill-0" offset="0%" stop-color="rgb(114,69,178)"/><stop id="ems6b7z3aim4-fill-1" offset="100%" stop-color="rgb(92,143,224)"/></linearGradient><linearGradient id="ems6b7z3aim6-fill" x1="1092.930000" y1="1002.550000" x2="1084.370000" y2="1864.960000" spreadMethod="pad" gradientUnits="userSpaceOnUse"><stop id="ems6b7z3aim6-fill-0" offset="0%" stop-color="rgb(222,82,115)"/><stop id="ems6b7z3aim6-fill-1" offset="100%" stop-color="rgb(255,151,117)"/></linearGradient></defs><g id="ems6b7z3aim2" clip-rule="evenodd"><g id="ems6b7z3aim3_to" transform="translate(1777.587862,2616.650468)"><path id="ems6b7z3aim3" d="M1940.130000,2539.240000C1940.020000,2520.130000,1940.180000,2502.100000,1940.180000,2482.990000L1995.270000,2482.990000C1995.270000,2502.100000,1995.120000,2520.130000,1995.230000,2539.240000L1940.140000,2539.240000ZM2731.140000,2922.680000C2694.030000,2960.090000,2646.800000,2981.150000,2593.860000,2981.150000C2485.820000,2981.150000,2400.940000,2891.600000,2400.940000,2784.610000C2400.940000,2677.620000,2485.820000,2588.070000,2593.860000,2588.070000C2701.900000,2588.070000,2786.770000,2677.620000,2786.770000,2784.610000C2786.770000,2793.920000,2786.070000,2802.950000,2784.870000,2812.180000C2675.810000,2812.180000,2566.710000,2812.160000,2457.650000,2812.160000C2470.870000,2877.660000,2526.390000,2926.050000,2593.860000,2926.050000C2631.620000,2926.050000,2666.150000,2910.920000,2692.550000,2884.090000L2731.140000,2922.680000ZM961.690000,2588.070000C1013.450000,2588.070000,1066.860000,2610.470000,1101.480000,2649.270000L1101.480000,2595.400000L1156.570000,2595.400000L1156.570000,2973.800000L1101.480000,2973.800000L1101.480000,2920.060000C1063.460000,2959.130000,1016.580000,2981.150000,961.690000,2981.150000C853.640000,2981.150000,768.770000,2891.600000,768.770000,2784.610000C768.770000,2677.620000,853.650000,2588.070000,961.690000,2588.070000ZM961.690000,2643.170000C883.930000,2643.170000,822.840000,2707.600000,822.840000,2784.610000C822.840000,2861.620000,883.930000,2926.050000,961.690000,2926.050000C1039.450000,2926.050000,1100.530000,2861.620000,1100.530000,2784.610000C1100.530000,2707.600000,1039.450000,2643.170000,961.690000,2643.170000ZM2245.500000,2588.070000C2297.500000,2588.070000,2346.640000,2609.240000,2382.780000,2646.550000C2369.880000,2659.350000,2357,2672.240000,2344.200000,2685.130000C2318.030000,2658.330000,2283.040000,2643.170000,2245.510000,2643.170000C2167.750000,2643.170000,2106.660000,2707.600000,2106.660000,2784.610000C2106.660000,2861.620000,2167.750000,2926.050000,2245.510000,2926.050000C2283.260000,2926.050000,2317.810000,2910.900000,2344.200000,2884.090000L2382.790000,2922.670000C2346.340000,2960.020000,2297.830000,2981.140000,2245.510000,2981.140000C2137.470000,2981.140000,2052.590000,2891.590000,2052.590000,2784.600000C2052.590000,2677.610000,2137.470000,2588.060000,2245.510000,2588.060000ZM2457.650000,2757.060000L2730.070000,2757.060000C2716.680000,2691.500000,2661.510000,2643.170000,2593.860000,2643.170000C2526.360000,2643.170000,2470.880000,2691.530000,2457.650000,2757.060000ZM1276.340000,2764.070000L1276.340000,2973.790000L1221.240000,2973.790000L1221.240000,2595.390000L1276.340000,2595.390000L1276.340000,2641.130000C1307.900000,2611.710000,1346.370000,2595.390000,1389.690000,2595.390000L1459.700000,2595.390000L1459.700000,2483.070000L1514.800000,2483.070000L1514.800000,2595.390000L1698.160000,2595.390000L1698.160000,2483.070000L1753.260000,2483.070000L1753.260000,2595.390000L1995.270000,2595.390000L1995.270000,2973.790000L1940.170000,2973.790000L1940.170000,2650.490000L1753.260000,2650.490000L1753.260000,2868.670000C1753.260000,2899.340000,1777.590000,2925,1808.560000,2925C1823.600000,2925,1837.020000,2919.070000,1847.630000,2908.540000L1886.950000,2947.860000C1866.010000,2969.140000,1838.510000,2981.160000,1808.560000,2981.160000C1746.730000,2981.160000,1698.160000,2929.910000,1698.160000,2868.680000L1698.160000,2650.500000L1514.800000,2650.500000L1514.800000,2868.680000C1514.800000,2899.350000,1539.130000,2925.010000,1570.100000,2925.010000C1585.140000,2925.010000,1598.560000,2919.080000,1609.170000,2908.550000L1648.490000,2947.870000C1627.550000,2969.150000,1600.050000,2981.170000,1570.100000,2981.170000C1508.270000,2981.170000,1459.700000,2929.920000,1459.700000,2868.690000L1459.700000,2650.510000L1389.690000,2650.510000C1327.510000,2650.510000,1276.340000,2701.970000,1276.340000,2764.090000Z" transform="translate(-1777.770142,-2732.080078)" opacity="0" clip-rule="evenodd" fill="rgb(59,52,71)" fill-rule="evenodd" stroke="none" stroke-width="1"/></g><g id="ems6b7z3aim4_tr" transform="translate(944,2328) rotate(0)"><g id="ems6b7z3aim4_ts" transform="scale(0,1)"><polygon id="ems6b7z3aim4" points="944.630000,381 944.590000,2328 2450.900000,1614.690000" transform="translate(-944,-2328)" opacity="0" clip-rule="evenodd" fill="url(#ems6b7z3aim4-fill)" fill-rule="evenodd" stroke="none" stroke-width="1"/></g></g><g id="ems6b7z3aim5_tr" transform="translate(944,2328) rotate(0)"><g id="ems6b7z3aim5_ts" transform="scale(0,1)"><polygon id="ems6b7z3aim5" points="944.630000,381 944.590000,2328.010000 1989.870000,1614.680000" transform="translate(-944,-2328)" opacity="0" clip-rule="evenodd" fill="rgb(92,143,224)" fill-rule="evenodd" stroke="none" stroke-width="1"/></g></g><g id="ems6b7z3aim6_ts" transform="translate(944,2328) rotate(25.340000) scale(0,1)"><polygon id="ems6b7z3aim6" points="944.630000,381 944.590000,2328 1528.840000,1614.670000" transform="translate(-944,-2328)" opacity="0" clip-rule="evenodd" fill="url(#ems6b7z3aim6-fill)" fill-rule="evenodd" stroke="none" stroke-width="1"/></g></g></svg>