<svg width="103" height="123" viewBox="0 0 103 123" fill="none" xmlns="http://www.w3.org/2000/svg">
<g clip-path="url(#clip0)">
<path fill-rule="evenodd" clip-rule="evenodd" d="M51.513 0L31.3658 45.0982L9.27051 89.3132H93.7555L51.513 0Z" fill="url(#paint0_linear)"/>
<path fill-rule="evenodd" clip-rule="evenodd" d="M51.513 0L31.3658 45.0982L9.27051 89.3132L72.6343 79.2944L51.513 0Z" fill="#5C8FE0"/>
<path fill-rule="evenodd" clip-rule="evenodd" d="M51.513 0L9.27051 89.3132L51.513 69.281V0Z" fill="url(#paint1_linear)"/>
<path fill-rule="evenodd" clip-rule="evenodd" d="M59.7868 100.411C59.7813 99.4356 59.7868 98.5144 59.7868 97.5337H62.6008C62.6008 98.509 62.5953 99.4302 62.6008 100.411H59.7868ZM100.162 120.01C98.2682 121.922 95.8601 122.995 93.1543 122.995C87.64 122.995 83.3053 118.417 83.3053 112.949C83.3053 107.482 87.64 102.903 93.1543 102.903C98.6687 102.903 103.003 107.482 103.003 112.949C103.003 113.426 102.965 113.887 102.906 114.358C97.3375 114.358 91.769 114.358 86.2059 114.358C86.8824 117.707 89.7126 120.178 93.1597 120.178C95.0863 120.178 96.8504 119.403 98.1979 118.032L100.168 120.004L100.162 120.01ZM9.84901 102.909C12.4898 102.909 15.2173 104.052 16.9814 106.035V103.283H19.7954V122.621H16.9814V119.874C15.0387 121.874 12.6468 122.995 9.84901 122.995C4.33465 122.995 0 118.417 0 112.949C0 107.482 4.33465 102.903 9.84901 102.903V102.909ZM9.84901 105.726C5.88235 105.726 2.75989 109.021 2.75989 112.955C2.75989 116.889 5.87694 120.183 9.84901 120.183C13.8157 120.183 16.9381 116.889 16.9381 112.955C16.9381 109.021 13.8211 105.726 9.84901 105.726ZM75.3774 102.909C78.0291 102.909 80.54 103.993 82.3854 105.9C81.7252 106.556 81.0704 107.211 80.4156 107.872C79.0789 106.501 77.2931 105.726 75.3774 105.726C71.4107 105.726 68.2883 109.021 68.2883 112.955C68.2883 116.889 71.4053 120.183 75.3774 120.183C77.3039 120.183 79.0681 119.408 80.4156 118.037L82.3854 120.01C80.5238 121.917 78.0507 123.001 75.3774 123.001C69.863 123.001 65.5284 118.422 65.5284 112.955C65.5284 107.487 69.863 102.909 75.3774 102.909ZM86.2059 111.546H100.108C99.4263 108.197 96.6069 105.726 93.1543 105.726C89.7072 105.726 86.8769 108.197 86.2005 111.546H86.2059ZM25.9105 111.904V122.621H23.0965V103.283H25.9105V105.618C27.5231 104.117 29.4821 103.283 31.6954 103.283H35.267V97.5445H38.081V103.283H47.4376V97.5445H50.2516V103.283H62.6062V122.621H59.7922V106.1H50.2516V117.252C50.2516 118.818 51.4909 120.129 53.0764 120.129C53.8449 120.129 54.5267 119.825 55.0733 119.289L57.081 121.299C56.0095 122.388 54.6079 123.001 53.0818 123.001C49.9269 123.001 47.4484 120.384 47.4484 117.252V106.1H38.0919V117.252C38.0919 118.818 39.3311 120.129 40.9167 120.129C41.6851 120.129 42.367 119.825 42.9136 119.289L44.9212 121.299C43.8498 122.388 42.4482 123.001 40.9221 123.001C37.7672 123.001 35.2887 120.384 35.2887 117.252V106.1H31.7171C28.5459 106.1 25.9321 108.728 25.9321 111.904H25.9105Z" fill="#3B3447"/>
</g>
<defs>
<linearGradient id="paint0_linear" x1="27.1232" y1="74.8295" x2="47.3188" y2="-1.65068" gradientUnits="userSpaceOnUse">
<stop stop-color="#7245B2"/>
<stop offset="1" stop-color="#5C8FE0"/>
</linearGradient>
<linearGradient id="paint1_linear" x1="16.338" y1="31.8825" x2="31.7681" y2="70.8605" gradientUnits="userSpaceOnUse">
<stop stop-color="#DE5273"/>
<stop offset="1" stop-color="#FF9775"/>
</linearGradient>
<clipPath id="clip0">
<rect width="103" height="123" fill="white"/>
</clipPath>
</defs>
</svg>
