<svg width="17" height="16" viewBox="0 0 17 16" fill="none" xmlns="http://www.w3.org/2000/svg">
<path d="M6.99967 11.4538L2.52953 16H0L5.7321 10.1704C5.41801 9.74831 5.16001 9.28057 4.96371 8.79002C4.64962 8.02567 4.48697 7.19858 4.48697 6.36007C4.49258 4.60321 5.18806 3.01176 6.32102 1.86524C7.45398 0.713013 9.0132 0 10.7407 0C12.4682 0 14.033 0.713013 15.1659 1.86524C16.2989 3.01747 17 4.60891 17 6.36007C17 8.11694 16.2989 9.70267 15.1659 10.8549C14.0386 12.0071 12.4738 12.7144 10.7463 12.7144C9.97229 12.7201 9.22633 12.5718 8.53645 12.3094C7.98119 12.0984 7.46519 11.8075 6.99967 11.4538ZM10.7463 1.81961C9.51237 1.81961 8.39624 2.32727 7.58859 3.14866C6.78093 3.97005 6.27614 5.10517 6.27614 6.36007C6.28175 6.97612 6.39393 7.56364 6.61828 8.10553C6.83702 8.64742 7.16793 9.14367 7.58859 9.57718L7.7961 9.77683C8.19993 10.1362 8.66546 10.4271 9.17024 10.621C9.6582 10.8093 10.1854 10.9119 10.7463 10.9119C11.9802 10.9176 13.0963 10.4043 13.904 9.58289C14.7116 8.7615 15.2108 7.62638 15.2108 6.37148C15.2108 5.11658 14.7116 3.97576 13.904 3.15437C13.0963 2.33298 11.9802 1.82531 10.7463 1.82531V1.81961Z" fill="#3B3447"/>
</svg>
