<svg width="20" height="18" viewBox="0 0 20 18" fill="none" xmlns="http://www.w3.org/2000/svg">
<path fill-rule="evenodd" clip-rule="evenodd" d="M6.68377 0.0513225C6.88904 -0.0171075 7.11096 -0.0171075 7.31623 0.0513225L13 1.94591L17.3675 0.490063C18.6626 0.0583725 20 1.02231 20 2.38743V14.2792C20 15.1401 19.4491 15.9044 18.6325 16.1766L13.3162 17.9487C13.111 18.0171 12.889 18.0171 12.6838 17.9487L7 16.0541L2.63246 17.5099C1.33739 17.9416 0 16.9777 0 15.6126V3.72076C0 2.8599 0.55086 2.09562 1.36754 1.82339L6.68377 0.0513225ZM8 14.2792L12 15.6126V3.72076L8 2.38743V14.2792ZM6 2.38743V14.2792L2 15.6126V3.72076L6 2.38743ZM14 3.72076V15.6126L18 14.2792V2.38743L14 3.72076Z" fill="#3B3447"/>
</svg>
