<svg width="35" height="28" viewBox="0 0 35 28" fill="none" xmlns="http://www.w3.org/2000/svg">
<path d="M26.1218 5.44174C25.2531 6.11146 24.0661 6.79218 22.6579 7.43446L22.4259 7.53876C23.273 8.94958 23.9258 10.4922 24.3575 12.1281C24.6272 13.1546 24.8053 14.1921 24.8863 15.2297C26.6452 14.5325 28.2099 13.8024 29.5102 13.0778C29.4562 12.3312 29.3321 11.5791 29.1325 10.827C28.5768 8.72451 27.5192 6.89648 26.1272 5.44174H26.1218ZM23.2082 15.861C23.1543 14.7631 22.987 13.6596 22.7011 12.5782C22.291 11.0137 21.6489 9.54795 20.818 8.21398C19.453 8.74647 17.9422 9.24602 16.3668 9.67421C14.7751 10.1079 13.2104 10.4482 11.7482 10.6843C11.6835 12.2653 11.8507 13.8683 12.2662 15.4273C12.5522 16.5087 12.946 17.5463 13.437 18.5289C15.0179 18.227 16.6851 17.8482 18.4009 17.3816C20.095 16.9205 21.7083 16.4099 23.2136 15.8719L23.2082 15.861ZM11.6673 18.8253C11.2303 17.8811 10.8742 16.893 10.6044 15.8719C10.1727 14.2361 9.98388 12.5672 10.0217 10.9094C8.40301 11.085 6.96241 11.1125 5.84015 10.9697C5.34916 12.935 5.32759 15.0595 5.88332 17.162C6.08296 17.9141 6.34195 18.6277 6.66568 19.3084C8.13325 19.2755 9.82741 19.1163 11.6727 18.8308L11.6673 18.8253ZM4.77185 19.281C4.55603 18.743 4.37258 18.1886 4.2215 17.6176C4.07043 17.0467 3.95715 16.4758 3.88162 15.9049C3.19639 16.377 2.66223 16.8271 2.28454 17.2443C1.86369 17.711 1.66944 18.0678 1.72879 18.2929C1.87447 18.8528 2.99134 19.1822 4.77185 19.281ZM3.7521 13.9231C3.76289 11.4583 4.42116 9.07584 5.59738 7.00078C7.35631 3.89367 10.2806 1.47825 13.9442 0.479149C17.6131 -0.519956 21.3306 0.0893901 24.3791 1.879C26.4186 3.07572 28.1559 4.80494 29.3807 6.9349C30.7835 6.96235 31.9327 7.12155 32.796 7.39603C33.9776 7.77481 34.7168 8.39514 34.9381 9.24053C35.3589 10.8435 33.6108 12.7539 30.449 14.538C27.584 16.1574 23.4888 17.7933 18.8379 19.0559C14.1924 20.324 9.83822 20.9937 6.56316 21.0486C2.94279 21.109 0.493246 20.346 0.0670026 18.743C-0.154212 17.8976 0.174885 16.9863 1.01658 16.0586C1.63167 15.3834 2.54893 14.6588 3.74673 13.9177L3.7521 13.9231ZM30.2494 8.71902C30.4598 9.25151 30.6432 9.80047 30.7943 10.3714C30.9454 10.9478 31.0587 11.5187 31.1342 12.0951C32.6288 11.1015 33.4327 10.2506 33.287 9.69068C33.2277 9.4656 32.8824 9.25151 32.2943 9.06487C31.7601 8.89469 31.0695 8.7794 30.2494 8.71902ZM24.7999 18.9955C24.7567 19.3249 24.7028 19.6543 24.6434 19.9837C24.3197 21.7074 23.7424 23.3762 22.9223 24.9407C25.0643 23.8483 26.7855 22.152 27.9401 20.1209C28.4581 19.2096 28.8627 18.227 29.1325 17.2059C29.8069 16.882 30.4706 16.5472 31.0964 16.2013C30.8321 17.9031 30.2548 19.528 29.4238 20.9992C27.6649 24.1063 24.7406 26.5217 21.0716 27.5209C17.4027 28.52 13.6852 27.9106 10.6367 26.121C9.19076 25.2701 7.89044 24.1502 6.82213 22.8108C7.53973 22.7943 8.27352 22.7504 9.0127 22.679C9.75728 23.4311 10.5882 24.0789 11.4892 24.6059C13.4694 25.7697 15.7733 26.3625 18.1419 26.2308C16.6743 25.2976 15.3632 24.1557 14.2409 22.8437C14.0197 22.5857 13.8039 22.3167 13.5989 22.0422C14.2517 21.9215 14.8938 21.7952 15.5089 21.6635L15.5413 21.6964C16.9117 23.3048 18.6059 24.6333 20.5321 25.5775C21.7407 23.7715 22.5554 21.7568 22.9547 19.6598L22.9601 19.6433C23.5644 19.4457 24.1794 19.2261 24.7999 19.001V18.9955ZM21.9619 5.84248C23.1165 5.31548 24.0931 4.7775 24.8161 4.26148C24.4061 3.94308 23.9744 3.65213 23.5266 3.38863C21.5302 2.21386 19.1994 1.62099 16.8092 1.76921C18.2876 2.70792 19.6095 3.86073 20.7371 5.18372C20.9799 5.46918 21.2173 5.76562 21.4439 6.07304L21.9565 5.84248H21.9619ZM15.9297 7.98342C17.2894 7.61561 18.5897 7.19291 19.7875 6.74277L19.4422 6.32556C18.0663 4.70613 16.3668 3.37765 14.4352 2.42795C13.232 4.22305 12.4173 6.23773 12.018 8.32926L11.9209 8.87822C13.1942 8.65863 14.5485 8.35671 15.9243 7.98342H15.9297ZM10.081 9.1527L10.1619 9.14172C10.2105 8.75745 10.2699 8.37867 10.34 7.99988C10.6637 6.29262 11.241 4.63477 12.0558 3.08122C9.94073 4.17364 8.23575 5.85894 7.09191 7.87362C6.83292 8.32377 6.60634 8.79588 6.4067 9.27896C7.39947 9.36679 8.65662 9.31738 10.081 9.1527Z" fill="#878EA1"/>
</svg>
