<svg width="18" height="22" viewBox="0 0 18 22" fill="none" xmlns="http://www.w3.org/2000/svg">
<path fill-rule="evenodd" clip-rule="evenodd" d="M9 20.9116L9.4933 20.4091C13.6415 16.1833 15.75 12.4934 15.75 9.25C15.75 4.65683 12.6772 1.375 9 1.375C5.32279 1.375 2.25 4.65683 2.25 9.25C2.25 12.4934 4.35848 16.1833 8.5067 20.4091L9 20.9116ZM9 18.5805C5.47996 14.8794 3.75 11.7431 3.75 9.25C3.75 5.65952 6.12309 3.125 9 3.125C11.8769 3.125 14.25 5.65952 14.25 9.25C14.25 11.7431 12.52 14.8794 9 18.5805ZM9 4.87499C11.0711 4.87499 12.75 6.83375 12.75 9.24999C12.75 11.6662 11.0711 13.625 9 13.625C6.92893 13.625 5.25 11.6662 5.25 9.24999C5.25 6.83375 6.92893 4.87499 9 4.87499ZM6.75 9.24999C6.75 7.80024 7.75736 6.62499 9 6.62499C10.2426 6.62499 11.25 7.80024 11.25 9.24999C11.25 10.6997 10.2426 11.875 9 11.875C7.75736 11.875 6.75 10.6997 6.75 9.24999Z" fill="#212121"/>
</svg>
