<svg width="20" height="20" viewBox="0 0 20 20" fill="none" xmlns="http://www.w3.org/2000/svg">
<path d="M15.7491 14.2564C17.8915 14.5583 19.2691 16.61 19.2691 18.6729H17.4754C17.4754 17.0014 16.8737 15.4919 15.7491 14.2564ZM15.6817 8.58756C15.6817 8.01173 15.6817 7.36882 15.6817 6.7259C15.6592 4.88102 14.9619 3.19826 13.6405 1.90125C15.9684 2.45471 17.4754 4.44495 17.4754 6.82094V8.52047C17.4754 10.8126 15.7604 11.9363 13.8036 12.6519C15.0182 11.5953 15.6648 10.2144 15.6817 8.59315V8.58756Z" fill="#3B3447"/>
<path d="M15.6908 18.6729C15.6908 16.4199 14.0489 14.2172 11.6592 14.2172H5.38955C2.9998 14.2172 1.35791 16.4199 1.35791 18.6729H3.15163C3.15163 17.4094 4.00069 16.0006 5.38955 16.0006H11.6592C13.048 16.0006 13.8971 17.4094 13.8971 18.6729H15.6908ZM13.8971 8.58189V6.80968C13.8971 3.93054 11.6985 1.74463 8.80269 1.74463H8.24039C5.34458 1.74463 3.146 3.93054 3.146 6.80968V8.50921C3.146 11.4722 6.10367 12.5456 8.52154 13.1606C10.7707 12.5903 13.8971 11.3324 13.8971 8.58189ZM8.52154 11.3213C7.12705 10.9299 4.93973 10.2814 4.93973 8.50921V6.80968C4.93973 4.91448 6.33421 3.52802 8.24039 3.52802H8.80269C10.7145 3.52802 12.1034 4.90889 12.1034 6.80968V8.58189C12.1034 10.1417 9.73048 10.9802 8.52154 11.3213Z" fill="#3B3447"/>
</svg>
