<svg width="25" height="14" viewBox="0 0 25 14" fill="none" xmlns="http://www.w3.org/2000/svg">
<path d="M14.5161 1.94751C14.0308 2.06892 13.5372 1.78005 13.4143 1.30071C13.2914 0.82137 13.5838 0.333655 14.069 0.212249C14.3254 0.14736 14.6051 0.0971236 14.9059 0.059446C15.2068 0.0217685 15.4907 0.00292969 15.7577 0.00292969C16.0734 0.00292969 16.3955 0.0259549 16.7154 0.069912C18.3914 0.302257 19.8534 1.13535 20.8958 2.32219C21.9404 3.51113 22.5655 5.05591 22.5655 6.71791L22.5634 6.84559C23.1397 7.04863 23.6461 7.38983 24.0465 7.8273C24.6419 8.47619 25 9.33231 25 10.2617C25 11.2643 24.5889 12.1707 23.9236 12.828C23.2583 13.4852 22.3409 13.8913 21.326 13.8913H14.372C13.8719 13.8913 13.4651 13.4894 13.4651 12.9954C13.4651 12.5014 13.8719 12.0995 14.372 12.0995H21.326C21.8387 12.0995 22.3049 11.8944 22.6417 11.5616C22.9786 11.2288 23.1863 10.7703 23.1863 10.2617C23.1863 9.78654 23.0062 9.35115 22.7074 9.02461C22.4087 8.69807 21.987 8.4762 21.5103 8.43014L20.5717 8.33804L20.703 7.41913C20.7348 7.19306 20.7518 6.95863 20.7518 6.72C20.7518 5.49967 20.2941 4.36515 19.5292 3.49438C18.7643 2.62361 17.6922 2.01449 16.4675 1.84285C16.245 1.81145 16.0077 1.7968 15.7577 1.7968C15.531 1.7968 15.3212 1.80936 15.1326 1.83238H15.1284C14.9419 1.85541 14.7364 1.89518 14.5161 1.9517V1.94751ZM9.95 13.1063C9.95 13.6003 9.54318 14.0022 9.04314 14.0022C8.5431 14.0022 8.13628 13.6003 8.13628 13.1063V2.75339C8.13628 2.2594 8.5431 1.8575 9.04314 1.8575C9.54318 1.8575 9.95 2.2594 9.95 2.75339V13.1063ZM7.2379 13.1063C7.2379 13.6003 6.83109 14.0022 6.33104 14.0022C5.831 14.0022 5.42419 13.6003 5.42419 13.1063V5.54153C5.42419 5.04754 5.831 4.64564 6.33104 4.64564C6.83109 4.64564 7.2379 5.04754 7.2379 5.54153V13.1063ZM4.52581 12.5579C4.52581 13.0519 4.11899 13.4538 3.61895 13.4538C3.11891 13.4538 2.71209 13.0519 2.71209 12.5579V5.06638C2.71209 4.57238 3.11891 4.17049 3.61895 4.17049C4.11899 4.17049 4.52581 4.57238 4.52581 5.06638V12.5579ZM1.81371 11.3627C1.81371 11.8567 1.4069 12.2586 0.906857 12.2586C0.406814 12.2586 0 11.8567 0 11.3627V8.02825C0 7.53426 0.406814 7.13236 0.906857 7.13236C1.4069 7.13236 1.81371 7.53426 1.81371 8.02825V11.3627ZM12.66 13.1043C12.66 13.5982 12.2532 14.0001 11.7531 14.0001C11.2531 14.0001 10.8463 13.5982 10.8463 13.1043V1.38235C10.8463 0.888352 11.2531 0.486458 11.7531 0.486458C12.2532 0.486458 12.66 0.888352 12.66 1.38235V13.1043Z" fill="#7245B2"/>
</svg>
