<svg width="18" height="17" viewBox="0 0 18 17" fill="none" xmlns="http://www.w3.org/2000/svg">
<path fill-rule="evenodd" clip-rule="evenodd" d="M16.5995 2.75722L17.7784 2.8949L17.2485 3.95699C16.99 4.47493 16.7313 4.99287 16.4724 5.51081C16.4417 5.62051 16.3877 5.71668 16.3079 5.84189C16.2745 5.8942 16.1606 6.06062 16.1553 6.06861C16.1252 6.11373 16.1029 6.14931 16.0869 6.17781V8.16826C16.0869 13.2616 11.1578 16.4982 6.50279 16.4982C5.55026 16.4982 4.82656 16.4525 3.99788 16.2717C2.63413 15.9741 1.61923 15.3825 1.15482 14.3486L0.676679 13.2842L1.83866 13.1774C2.88984 13.0807 3.80124 12.8804 4.50116 12.6123C2.57964 12.3032 1.50284 11.4593 1.50284 9.8744V9.04106H2.33617C2.51926 9.04106 2.68436 9.02621 2.83196 8.99894C1.38984 8.1367 0.667522 6.75348 0.667522 4.83493C0.667364 4.75315 0.667364 4.75315 0.666873 4.66572C0.661455 3.69868 0.713397 3.18196 0.978127 2.52249C1.14779 2.09983 1.39303 1.70856 1.72309 1.35005L2.35193 0.666992L2.96332 1.36572C4.97812 3.66833 6.9698 5.06529 9.00331 5.23426C9.012 3.10953 10.6178 1.50159 12.7535 1.50159C13.7491 1.50159 14.6522 1.8795 15.3619 2.56093C15.7503 2.64075 16.1629 2.70623 16.5995 2.75722ZM14.757 4.13535L14.5016 4.0775L14.3251 3.8839C13.8986 3.41579 13.3631 3.16827 12.7535 3.16827C11.5343 3.16827 10.6699 4.03692 10.6699 5.2516C10.6699 5.45012 10.6648 5.57485 10.6401 5.73879C10.5414 6.39297 10.1745 6.91827 9.41992 6.91827C6.92156 6.91827 4.66764 5.57985 2.46975 3.2939C2.35644 3.63834 2.3298 3.9924 2.33352 4.65639C2.33402 4.7452 2.33402 4.7452 2.33419 4.83494C2.33419 6.54161 3.02562 7.47514 4.66273 7.99549L5.24364 8.18013V8.78967C5.24364 9.52883 4.54336 10.2246 3.51874 10.5363C3.98843 10.8926 4.94901 11.0849 6.50309 11.0849H7.33642V11.9183C7.33642 13.1122 5.96452 14.047 3.89213 14.5352C4.56799 14.7423 5.46789 14.8315 6.50279 14.8315C10.3481 14.8315 14.4203 12.1577 14.4203 8.16827V6.08494C14.4203 5.84012 14.4912 5.62761 14.6091 5.40666C14.6552 5.32027 14.706 5.23791 14.7686 5.14398C14.7804 5.1263 14.8242 5.06222 14.8589 5.011L14.9249 4.87891C15.032 4.66488 15.1389 4.45084 15.2459 4.23681C15.0797 4.20533 14.9167 4.17151 14.757 4.13535Z" fill="#7245B2"/>
</svg>
