<svg width="25" height="22" viewBox="0 0 25 22" fill="none" xmlns="http://www.w3.org/2000/svg">
<path d="M1 16L1 20.5H23.5V16" stroke="#989898" stroke-width="2" stroke-linecap="round" stroke-linejoin="round"/>
<path fill-rule="evenodd" clip-rule="evenodd" d="M18.7071 7.7071C18.3166 8.0976 17.6834 8.0976 17.2929 7.7071L13 3.41421V15C13 15.5523 12.5523 16 12 16C11.4477 16 11 15.5523 11 15V3.41421L6.7071 7.7071C6.3166 8.0976 5.6834 8.0976 5.2929 7.7071C4.9024 7.3166 4.9024 6.6834 5.2929 6.2929L11.2929 0.29289C11.4804 0.10536 11.7348 0 12 0C12.2652 0 12.5196 0.10536 12.7071 0.29289L18.7071 6.2929C19.0976 6.6834 19.0976 7.3166 18.7071 7.7071Z" fill="#989898"/>
</svg>
