<svg width="42" height="42" viewBox="0 0 42 42" fill="none" xmlns="http://www.w3.org/2000/svg">
<path fill-rule="evenodd" clip-rule="evenodd" d="M20.6739 4.2C15.6713 4.2 11.6159 7.96081 11.6159 12.6C11.6159 17.2391 15.6713 21 20.6739 21C25.6764 21 29.7319 17.2391 29.7319 12.6C29.7319 7.96081 25.6764 4.2 20.6739 4.2ZM7.08694 12.6C7.08694 5.64121 13.17 0 20.6739 0C28.1777 0 34.2608 5.64121 34.2608 12.6C34.2608 19.5588 28.1777 25.2 20.6739 25.2C13.17 25.2 7.08694 19.5588 7.08694 12.6ZM11.6159 33.6C7.864 33.6 4.82244 36.4205 4.82244 39.9C4.82244 41.0598 3.80858 42 2.55795 42C1.30732 42 0.293457 41.0598 0.293457 39.9C0.293457 34.1011 5.36271 29.4 11.6159 29.4H29.7319C35.985 29.4 41.0543 34.1011 41.0543 39.9C41.0543 41.0598 40.0405 42 38.7898 42C37.5392 42 36.5253 41.0598 36.5253 39.9C36.5253 36.4205 33.4839 33.6 29.7319 33.6H11.6159Z" fill="white"/>
</svg>
