<svg width="18" height="20" viewBox="0 0 18 20" fill="none" xmlns="http://www.w3.org/2000/svg">
<path fill-rule="evenodd" clip-rule="evenodd" d="M9 2C6.79086 2 5 3.79086 5 6C5 8.2091 6.79086 10 9 10C11.2091 10 13 8.2091 13 6C13 3.79086 11.2091 2 9 2ZM3 6C3 2.68629 5.68629 0 9 0C12.3137 0 15 2.68629 15 6C15 9.3137 12.3137 12 9 12C5.68629 12 3 9.3137 3 6ZM5 16C3.34315 16 2 17.3431 2 19C2 19.5523 1.55228 20 1 20C0.44772 20 0 19.5523 0 19C0 16.2386 2.23858 14 5 14H13C15.7614 14 18 16.2386 18 19C18 19.5523 17.5523 20 17 20C16.4477 20 16 19.5523 16 19C16 17.3431 14.6569 16 13 16H5Z" fill="#212121"/>
</svg>
